# xmcd
#
# Track frame offsets:
#	150
#	12862
#	27610
#	44090
#	55305
#	69182
#	76212
#	95310
#	105682
#	115560
#
# Disc length: 1789 seconds
#
# Revision: 2
# Processed by: cddbd v1.5.2PL0 Copyright (c) Steve Scherf et al.
# Submitted via: EasyCDDAExtractor 11.0.3.2
#
DISCID=7806fb0a
DTITLE=Jerry and Tammy Sullivan - A Joyful Noise
DYEAR=1991
DGENRE=Country
TTITLE0=Get Up John
TTITLE1=He Called My Name
TTITLE2=I'm Working On The Building
TTITLE3=Soldiers Of The Cross
TTITLE4=The Gates Of Zion
TTITLE5=Think About That Promise
TTITLE6=When Jesus Passed By
TTITLE7=Brand New Church
TTITLE8=Gospel Plow
TTITLE9=What A Wonderful Saviour Is He
EXTD=
EXTT0=
EXTT1=
EXTT2=
EXTT3=
EXTT4=
EXTT5=
EXTT6=
EXTT7=
EXTT8=
EXTT9=
PLAYORDER=
